<svg width="456" height="53" viewBox="0 0 456 53" fill="none" xmlns="http://www.w3.org/2000/svg">
<path d="M33.064 1.6H48.616V3.688C46.6 5.032 44.632 5.992 42.712 6.568V52.864H38.608L12.472 13.192L9.664 7.576H9.448L10.096 13.192V47.392C12.064 47.92 13.912 48.76 15.64 49.912V52H0.0880001V49.912C0.952 49.384 1.864 48.928 2.824 48.544C3.832 48.112 4.888 47.728 5.992 47.392V6.136C5.032 5.752 4.072 5.344 3.112 4.912C2.2 4.48 1.336 4.048 0.52 3.616V1.6H12.688L35.368 35.8L38.68 41.992H38.968L38.608 35.8V6.568C37.6 6.136 36.616 5.68 35.656 5.2C34.744 4.72 33.88 4.216 33.064 3.688V1.6ZM86.9504 1.6C86.9024 3.52 86.8064 5.464 86.6624 7.432C86.5664 9.352 86.3984 11.296 86.1584 13.264H84.2864L81.3344 5.344H65.6384V24.424H77.3744L80.1824 19.096H81.9824C82.2704 23.848 82.2704 28.696 81.9824 33.64H80.1824L77.3744 28.168H65.6384V48.256H82.1984L85.7264 39.616H87.5264C87.8624 41.632 88.1024 43.672 88.2464 45.736C88.3904 47.8 88.4144 49.888 88.3184 52H52.8224V49.912C54.5024 49.144 56.4704 48.568 58.7264 48.184V5.488C57.7664 5.296 56.7824 5.056 55.7744 4.768C54.7664 4.432 53.7824 4.072 52.8224 3.688V1.6H86.9504ZM94.7286 52V49.912C96.6486 49 98.6166 48.424 100.633 48.184V5.488C99.6726 5.296 98.6886 5.056 97.6806 4.768C96.6726 4.432 95.6886 4.072 94.7286 3.688V1.6H102.361C103.273 1.6 104.137 1.576 104.953 1.528C105.817 1.48 106.705 1.432 107.617 1.384C108.529 1.336 109.513 1.288 110.569 1.24C111.625 1.192 112.825 1.168 114.169 1.168C116.089 1.168 118.033 1.336 120.001 1.672C122.017 1.96 123.817 2.536 125.401 3.4C127.033 4.264 128.353 5.488 129.361 7.072C130.369 8.608 130.873 10.624 130.873 13.12C130.873 14.368 130.681 15.616 130.297 16.864C129.913 18.112 129.313 19.288 128.497 20.392C127.729 21.448 126.745 22.384 125.545 23.2C124.345 24.016 122.929 24.616 121.297 25V25.288C122.737 25.528 124.153 25.936 125.545 26.512C126.985 27.088 128.257 27.88 129.361 28.888C130.465 29.848 131.353 31.048 132.025 32.488C132.745 33.928 133.105 35.656 133.105 37.672C133.105 40.264 132.529 42.496 131.377 44.368C130.225 46.24 128.713 47.776 126.841 48.976C125.017 50.176 122.929 51.064 120.577 51.64C118.225 52.168 115.849 52.432 113.449 52.432C111.769 52.432 109.873 52.36 107.761 52.216C105.649 52.072 103.609 52 101.641 52H94.7286ZM113.953 48.688C115.681 48.688 117.289 48.424 118.777 47.896C120.313 47.368 121.609 46.648 122.665 45.736C123.769 44.776 124.633 43.648 125.257 42.352C125.881 41.008 126.193 39.568 126.193 38.032C126.193 36.112 125.809 34.528 125.041 33.28C124.321 31.984 123.313 30.976 122.017 30.256C120.769 29.488 119.305 28.96 117.625 28.672C115.993 28.384 114.289 28.24 112.513 28.24H107.113V48.112C107.785 48.304 108.577 48.448 109.489 48.544C110.449 48.64 111.937 48.688 113.953 48.688ZM110.713 24.496C111.529 24.496 112.489 24.472 113.593 24.424C114.745 24.328 115.681 24.232 116.401 24.136C118.609 23.368 120.409 22.144 121.801 20.464C123.241 18.736 123.961 16.72 123.961 14.416C123.961 11.248 123.001 8.872 121.081 7.288C119.209 5.704 116.689 4.912 113.521 4.912C112.033 4.912 110.761 4.936 109.705 4.984C108.649 5.032 107.785 5.104 107.113 5.2V24.496H110.713ZM151.842 48.184C152.946 48.424 154.002 48.688 155.01 48.976C156.018 49.216 157.002 49.528 157.962 49.912V52H139.026V49.912C140.082 49.432 141.09 49.072 142.05 48.832C143.01 48.592 143.97 48.376 144.93 48.184V5.488C143.682 5.248 142.578 4.984 141.618 4.696C140.658 4.36 139.794 4.024 139.026 3.688V1.6H145.362C147.282 1.6 149.37 1.504 151.626 1.312C153.93 1.12 156.162 1.024 158.322 1.024C160.674 1.024 162.858 1.288 164.874 1.816C166.938 2.344 168.714 3.184 170.202 4.336C171.69 5.488 172.842 6.952 173.658 8.728C174.522 10.504 174.953 12.64 174.953 15.136C174.953 18.64 174.018 21.544 172.146 23.848C170.322 26.152 167.826 27.808 164.658 28.816C166.722 32.08 168.882 35.32 171.138 38.536C173.394 41.752 175.746 44.944 178.194 48.112L182.082 50.2V52H173.37L170.634 49.984C169.29 48.304 168.066 46.672 166.962 45.088C165.858 43.456 164.826 41.824 163.866 40.192C162.906 38.512 161.994 36.832 161.13 35.152C160.314 33.424 159.474 31.6 158.61 29.68H151.842V48.184ZM156.738 4.768C155.586 4.768 154.626 4.792 153.858 4.84C153.138 4.888 152.466 4.984 151.842 5.128V26.656H157.026C160.338 26.656 162.954 25.6 164.874 23.488C166.842 21.376 167.826 18.592 167.826 15.136C167.826 11.584 166.794 8.968 164.73 7.288C162.666 5.608 160.002 4.768 156.738 4.768ZM198.765 52H182.781V49.912C184.509 49.144 186.237 48.568 187.965 48.184L206.181 0.735999H208.269L226.485 48.184C227.445 48.376 228.381 48.592 229.293 48.832C230.253 49.072 231.141 49.432 231.957 49.912V52H213.525V49.912C214.485 49.528 215.469 49.192 216.477 48.904C217.485 48.616 218.469 48.376 219.429 48.184L214.533 35.008H197.325L192.573 48.184C194.589 48.472 196.653 49.048 198.765 49.912V52ZM198.765 31.264H213.309L207.621 16L206.253 9.808H206.109L204.309 16.144L198.765 31.264ZM242.73 47.032C243.306 47.608 244.05 48.112 244.962 48.544C245.874 48.928 247.242 49.12 249.066 49.12C250.602 49.12 252.042 48.928 253.386 48.544C254.73 48.112 255.882 47.512 256.842 46.744C257.85 45.928 258.642 44.968 259.218 43.864C259.794 42.712 260.082 41.416 260.082 39.976C260.082 38.056 259.482 36.448 258.282 35.152C257.13 33.856 255.666 32.704 253.89 31.696C252.162 30.688 250.266 29.704 248.202 28.744C246.138 27.784 244.218 26.656 242.442 25.36C240.714 24.016 239.25 22.432 238.05 20.608C236.898 18.736 236.322 16.408 236.322 13.624C236.322 11.608 236.682 9.808 237.402 8.224C238.122 6.64 239.13 5.296 240.426 4.192C241.77 3.088 243.354 2.248 245.178 1.672C247.002 1.048 249.042 0.735999 251.298 0.735999C254.226 0.735999 256.89 0.975999 259.29 1.456C261.738 1.888 263.658 2.44 265.05 3.112C265.05 3.928 264.978 4.888 264.834 5.992C264.738 7.048 264.594 8.152 264.402 9.304C264.258 10.456 264.09 11.584 263.898 12.688C263.706 13.744 263.514 14.68 263.322 15.496H261.45L258.57 5.632C257.706 5.248 256.602 4.96 255.258 4.768C253.962 4.576 252.57 4.48 251.082 4.48C248.634 4.48 246.666 5.176 245.178 6.568C243.69 7.912 242.946 9.808 242.946 12.256C242.946 14.224 243.522 15.88 244.674 17.224C245.874 18.568 247.362 19.768 249.138 20.824C250.914 21.88 252.81 22.912 254.826 23.92C256.89 24.88 258.81 26.008 260.586 27.304C262.362 28.6 263.826 30.136 264.978 31.912C266.178 33.688 266.778 35.896 266.778 38.536C266.778 40.696 266.37 42.664 265.554 44.44C264.786 46.216 263.658 47.728 262.17 48.976C260.682 50.224 258.858 51.184 256.698 51.856C254.538 52.528 252.09 52.864 249.354 52.864C246.33 52.864 243.618 52.504 241.218 51.784C238.818 51.064 237.114 50.296 236.106 49.48C236.154 48.664 236.226 47.68 236.322 46.528C236.466 45.376 236.61 44.2 236.754 43C236.946 41.752 237.138 40.552 237.33 39.4C237.522 38.248 237.714 37.264 237.906 36.448H239.778L242.73 47.032ZM281.331 47.032C281.907 47.608 282.651 48.112 283.563 48.544C284.475 48.928 285.843 49.12 287.667 49.12C289.203 49.12 290.643 48.928 291.987 48.544C293.331 48.112 294.483 47.512 295.443 46.744C296.451 45.928 297.243 44.968 297.819 43.864C298.395 42.712 298.683 41.416 298.683 39.976C298.683 38.056 298.083 36.448 296.883 35.152C295.731 33.856 294.267 32.704 292.491 31.696C290.763 30.688 288.867 29.704 286.803 28.744C284.739 27.784 282.819 26.656 281.043 25.36C279.315 24.016 277.851 22.432 276.651 20.608C275.499 18.736 274.923 16.408 274.923 13.624C274.923 11.608 275.283 9.808 276.003 8.224C276.723 6.64 277.731 5.296 279.027 4.192C280.371 3.088 281.955 2.248 283.779 1.672C285.603 1.048 287.643 0.735999 289.899 0.735999C292.827 0.735999 295.491 0.975999 297.891 1.456C300.339 1.888 302.259 2.44 303.651 3.112C303.651 3.928 303.579 4.888 303.435 5.992C303.339 7.048 303.195 8.152 303.003 9.304C302.859 10.456 302.691 11.584 302.499 12.688C302.307 13.744 302.115 14.68 301.923 15.496H300.051L297.171 5.632C296.307 5.248 295.203 4.96 293.859 4.768C292.563 4.576 291.171 4.48 289.683 4.48C287.235 4.48 285.267 5.176 283.779 6.568C282.291 7.912 281.547 9.808 281.547 12.256C281.547 14.224 282.123 15.88 283.275 17.224C284.475 18.568 285.963 19.768 287.739 20.824C289.515 21.88 291.411 22.912 293.427 23.92C295.491 24.88 297.411 26.008 299.187 27.304C300.963 28.6 302.427 30.136 303.579 31.912C304.779 33.688 305.379 35.896 305.379 38.536C305.379 40.696 304.971 42.664 304.155 44.44C303.387 46.216 302.259 47.728 300.771 48.976C299.283 50.224 297.459 51.184 295.299 51.856C293.139 52.528 290.691 52.864 287.955 52.864C284.931 52.864 282.219 52.504 279.819 51.784C277.419 51.064 275.715 50.296 274.707 49.48C274.755 48.664 274.827 47.68 274.923 46.528C275.067 45.376 275.211 44.2 275.355 43C275.547 41.752 275.739 40.552 275.931 39.4C276.123 38.248 276.315 37.264 276.507 36.448H278.379L281.331 47.032ZM329.437 52H311.221V49.912C313.141 49.144 315.109 48.568 317.125 48.184V5.488C314.869 5.152 312.901 4.552 311.221 3.688V1.6H329.437V3.688C328.621 4.12 327.757 4.48 326.845 4.768C325.933 5.056 324.997 5.296 324.037 5.488V24.28H346.645V5.488C345.637 5.248 344.677 4.984 343.765 4.696C342.901 4.408 342.061 4.072 341.245 3.688V1.6H359.461V3.688C358.597 4.168 357.637 4.552 356.581 4.84C355.573 5.08 354.565 5.296 353.557 5.488V48.184C354.661 48.376 355.717 48.616 356.725 48.904C357.733 49.192 358.645 49.528 359.461 49.912V52H341.245V49.912C342.973 49.144 344.773 48.568 346.645 48.184V28.024H324.037V48.184C324.997 48.376 325.933 48.616 326.845 48.904C327.757 49.192 328.621 49.528 329.437 49.912V52ZM389.02 1.6H404.932V3.688C403.972 4.12 403.036 4.48 402.124 4.768C401.212 5.056 400.324 5.296 399.46 5.488L384.988 24.64C386.188 26.224 387.556 28 389.092 29.968C390.676 31.936 392.308 33.976 393.988 36.088C395.716 38.152 397.468 40.264 399.244 42.424C401.068 44.536 402.844 46.552 404.572 48.472L408.028 50.2V52H399.028L396.58 50.272C393.748 46.96 390.916 43.384 388.084 39.544C385.3 35.704 382.588 31.816 379.948 27.88H376.42V48.184C378.628 48.568 380.428 49.144 381.82 49.912V52H363.604V49.912C365.524 49.144 367.492 48.568 369.508 48.184V5.488C367.348 5.2 365.38 4.6 363.604 3.688V1.6H381.82V3.688C381.052 4.024 380.212 4.36 379.3 4.696C378.388 4.984 377.428 5.248 376.42 5.488V25.432L380.74 24.424L394.204 5.488C393.244 5.248 392.332 4.984 391.468 4.696C390.604 4.408 389.788 4.072 389.02 3.688V1.6ZM422.359 52H406.375V49.912C408.103 49.144 409.831 48.568 411.559 48.184L429.775 0.735999H431.863L450.079 48.184C451.039 48.376 451.975 48.592 452.887 48.832C453.847 49.072 454.735 49.432 455.551 49.912V52H437.119V49.912C438.079 49.528 439.063 49.192 440.071 48.904C441.079 48.616 442.063 48.376 443.023 48.184L438.127 35.008H420.919L416.167 48.184C418.183 48.472 420.247 49.048 422.359 49.912V52ZM422.359 31.264H436.903L431.215 16L429.847 9.808H429.703L427.903 16.144L422.359 31.264Z" fill="black"/>
</svg>
